<?xml version="1.0" encoding="utf-8"?>
<!-- Generator: Adobe Illustrator 28.0.0, SVG Export Plug-In . SVG Version: 6.00 Build 0)  -->
<svg version="1.1" id="Layer_1" xmlns="http://www.w3.org/2000/svg" xmlns:xlink="http://www.w3.org/1999/xlink" x="0px" y="0px"
	 viewBox="0 0 218.5 76" style="enable-background:new 0 0 218.5 76;" xml:space="preserve">
<style type="text/css">
	.st0{fill:none;stroke:#000000;stroke-linecap:round;stroke-linejoin:round;stroke-miterlimit:10;}
	.st1{enable-background:new    ;}
	.st2{fill:#C59E67;}
	.st3{fill:none;stroke:#C59E67;stroke-width:1.5;stroke-linecap:round;stroke-linejoin:round;stroke-miterlimit:10;}
</style>
<path class="st0" d="M202-19.5"/>
<path class="st0" d="M98.8,10.8"/>
<path class="st0" d="M95,15.5"/>
<g>
	<g class="st1">
		<path class="st2" d="M43.6,32.9c-0.6,3.4-3.3,6-7.2,6h-4.1L31.4,44c-0.2,0.8-0.7,1.3-1.5,1.3h-1.6c-0.8,0-1.2-0.5-1.1-1.3L30,27.9
			c0.1-0.8,0.7-1.3,1.5-1.3h7C42.5,26.7,44.2,29.6,43.6,32.9z M37.3,30.2h-3.5l-1,5.4h3.5c1.5,0,2.7-1.2,2.9-2.7
			C39.6,31.4,38.8,30.2,37.3,30.2z"/>
		<path class="st2" d="M59.8,27.9l-0.2,1c-0.1,0.8-0.7,1.3-1.5,1.3H51l-0.7,4.2h6c0.8,0,1.2,0.5,1.1,1.3l-0.1,0.7
			c-0.1,0.8-0.7,1.3-1.5,1.3h-6l-0.7,4h7.1c0.8,0,1.2,0.5,1,1.3L57,44c-0.1,0.8-0.7,1.3-1.5,1.3h-10c-0.8,0-1.2-0.5-1.1-1.3
			l2.8-16.1c0.1-0.8,0.7-1.3,1.5-1.3h10C59.6,26.7,60,27.1,59.8,27.9z"/>
		<path class="st2" d="M76.9,27.9l-0.2,1c-0.1,0.8-0.7,1.3-1.5,1.3h-4.3L68.5,44c-0.1,0.8-0.7,1.3-1.5,1.3h-1.6
			c-0.8,0-1.2-0.5-1-1.3l2.4-13.8h-4.3c-0.8,0-1.2-0.5-1-1.3l0.2-1c0.2-0.8,0.7-1.3,1.5-1.3h12.7C76.7,26.7,77,27.1,76.9,27.9z"/>
		<path class="st2" d="M76,41.5c-0.2-0.8,0.3-1.4,1.2-1.6l1.2-0.3c0.8-0.2,1.1,0.1,1.4,0.8c0.4,1,1.5,1.6,3.1,1.6
			c1.8,0,3.1-0.8,3.3-2c0.2-0.9-0.4-1.7-1.8-2.2l-2.3-0.9c-2.1-0.7-4.5-2.4-4-5.2c0.6-3.4,3.9-5.5,7.5-5.5c2.9,0,4.7,1.3,5.3,3.4
			c0.3,0.8-0.2,1.4-1.1,1.6l-1.1,0.3c-0.8,0.2-1.2-0.1-1.5-0.7c-0.3-0.8-1.1-1.2-2.2-1.2c-1.3,0-2.6,0.7-2.8,1.9
			c-0.1,0.7,0.1,1.4,1.6,2l2.3,0.9c3.4,1.2,4.4,3.1,4.1,5.5c-0.7,3.6-4.1,5.6-8.1,5.6C78.8,45.6,76.5,44,76,41.5z"/>
	</g>
	<g class="st1">
		<path class="st2" d="M145.1,32.9c-0.6,3.4-3.3,6-7.2,6h-4.1L133,44c-0.2,0.8-0.7,1.3-1.5,1.3h-1.6c-0.8,0-1.2-0.5-1.1-1.3
			l2.8-16.1c0.1-0.8,0.7-1.3,1.5-1.3h7C144.1,26.7,145.7,29.6,145.1,32.9z M138.9,30.2h-3.5l-1,5.4h3.5c1.5,0,2.7-1.2,2.9-2.7
			C141.1,31.4,140.4,30.2,138.9,30.2z"/>
		<path class="st2" d="M161.4,27.9l-0.2,1c-0.1,0.8-0.7,1.3-1.5,1.3h-7.1l-0.7,4.2h6c0.8,0,1.2,0.5,1.1,1.3l-0.1,0.7
			c-0.1,0.8-0.7,1.3-1.5,1.3h-6l-0.7,4h7.1c0.8,0,1.2,0.5,1,1.3l-0.2,1c-0.1,0.8-0.7,1.3-1.5,1.3h-10c-0.8,0-1.2-0.5-1.1-1.3
			l2.8-16.1c0.1-0.8,0.7-1.3,1.5-1.3h10C161.2,26.7,161.5,27.1,161.4,27.9z"/>
		<path class="st2" d="M178.5,27.9l-0.2,1c-0.1,0.8-0.7,1.3-1.5,1.3h-4.3L170.1,44c-0.1,0.8-0.7,1.3-1.5,1.3h-1.6
			c-0.8,0-1.2-0.5-1-1.3l2.4-13.8h-4.3c-0.8,0-1.2-0.5-1-1.3l0.2-1c0.2-0.8,0.7-1.3,1.5-1.3h12.7C178.2,26.7,178.6,27.1,178.5,27.9z
			"/>
		<path class="st2" d="M177.5,41.5c-0.2-0.8,0.3-1.4,1.2-1.6l1.2-0.3c0.8-0.2,1.1,0.1,1.4,0.8c0.4,1,1.5,1.6,3.1,1.6
			c1.8,0,3.1-0.8,3.3-2c0.2-0.9-0.4-1.7-1.8-2.2l-2.3-0.9c-2.1-0.7-4.5-2.4-4-5.2c0.6-3.4,3.9-5.5,7.5-5.5c2.9,0,4.7,1.3,5.3,3.4
			c0.3,0.8-0.2,1.4-1.1,1.6l-1.1,0.3c-0.8,0.2-1.2-0.1-1.5-0.7c-0.3-0.8-1.1-1.2-2.2-1.2c-1.3,0-2.6,0.7-2.8,1.9
			c-0.1,0.7,0.1,1.4,1.6,2l2.3,0.9c3.4,1.2,4.4,3.1,4.1,5.5c-0.7,3.6-4.1,5.6-8.1,5.6C180.3,45.6,178.1,44,177.5,41.5z"/>
	</g>
	<path class="st3" d="M113,47.2c-1,0.2-2,0.3-3,0.3c-2,0-3.9-0.4-5.5-1.1c0.6-0.9,1.4-1.7,2.3-2.3C108.4,45.6,110.6,46.7,113,47.2z"
		/>
	<path class="st3" d="M113.2,47.2C113.2,47.2,113.1,47.2,113.2,47.2c-0.1,0.1-0.1,0-0.1,0C113.1,47.2,113.1,47.2,113.2,47.2z"/>
	<path class="st3" d="M106.8,44.1c-0.9,0.7-1.7,1.5-2.3,2.3c-3.8-1.6-6.5-4.8-6.5-8.4c0-1.5,0.5-3,1.3-4.3c1.2,0.4,2.5,0.7,3.8,0.7
		c-0.1,0.5-0.1,1-0.1,1.5C103,39.2,104.4,42,106.8,44.1z"/>
	<path class="st3" d="M105.6,29.2c-1.3,1.5-2.1,3.3-2.4,5.3c-1.4-0.1-2.7-0.3-3.8-0.7C100.6,31.7,102.8,30,105.6,29.2z"/>
	<path class="st3" d="M115.9,41.5c-0.3,2.1-1.3,4-2.7,5.6c0,0-0.1,0-0.1,0c-2.4-0.5-4.6-1.6-6.2-3.1c2.1-1.6,5-2.6,8.2-2.6
		C115.3,41.5,115.6,41.5,115.9,41.5z"/>
	<path class="st3" d="M120.5,42.6c-1.6,2.2-4.2,3.9-7.4,4.6c1.4-1.6,2.4-3.5,2.7-5.6C117.6,41.6,119.1,42,120.5,42.6z"/>
	<path class="st3" d="M122,38c0,1.7-0.5,3.2-1.5,4.6c-1.4-0.6-3-0.9-4.7-1c0.1-0.5,0.1-1,0.1-1.5c0-3.2-1.4-6-3.8-8.1
		c1-0.8,1.9-1.6,2.5-2.6C119,30.7,122,34.1,122,38z"/>
	<path class="st3" d="M116,40c0,0.5,0,1-0.1,1.5c-0.3,0-0.6,0-0.9,0c-3.2,0-6.1,1-8.2,2.6c-2.3-2.1-3.8-4.9-3.8-8.1
		c0-0.5,0-1,0.1-1.5c0.3,0,0.6,0,0.9,0c3.2,0,6.1-1,8.2-2.6C114.6,34,116,36.8,116,40z"/>
	<path class="st3" d="M112.2,31.9c-2.1,1.6-5,2.6-8.2,2.6c-0.3,0-0.6,0-0.9,0c0.3-2,1.2-3.8,2.4-5.3c0.3-0.1,0.6-0.2,0.9-0.2
		C108.7,29.5,110.7,30.5,112.2,31.9z"/>
	<path class="st3" d="M114.7,29.3c-0.6,1-1.5,1.9-2.5,2.6c-1.6-1.4-3.5-2.5-5.8-3c1.1-0.3,2.6-0.5,4.5-0.4
		C112.5,28.6,113.8,28.9,114.7,29.3z"/>
	<path class="st3" d="M120.5,33c1-0.7,2-1.3,3-2"/>
	<path class="st3" d="M96,44.5c1.2-0.6,2.3-1.2,3.5-1.9"/>
	<path class="st3" d="M94.5,42c10.3-2.7,20.7-5.3,31-8"/>
	<path class="st3" d="M122.1,36.9c1.3-0.1,2.6-0.2,3.9-0.4"/>
	<path class="st3" d="M94,39.5c1.4-0.1,2.7-0.2,4.1-0.4"/>
	<line class="st3" x1="106" y1="29.5" x2="113" y2="46.5"/>
	<path class="st3" d="M110,27.8"/>
	<path class="st3" d="M110.6,27.8"/>
	<path class="st3" d="M103,29.5"/>
	<path class="st3" d="M115,23.8"/>
	<path class="st3" d="M110.6,27.8"/>
	<path class="st3" d="M109.5,27.8"/>
	<path class="st3" d="M109,28.5"/>
	<path class="st3" d="M110.5,27.2"/>
	<path class="st3" d="M115,24"/>
	<path class="st3" d="M103,29.5"/>
	<path class="st3" d="M104,29.5"/>
	<path class="st3" d="M103,29.5"/>
	<path class="st3" d="M103,30.5"/>
	<path class="st3" d="M103.6,30.2"/>
	<path class="st3" d="M103,29.5"/>
	<path class="st3" d="M103,29.5"/>
	<path class="st3" d="M103.6,30.2"/>
	<path class="st3" d="M103.6,29.7c0,0-6.6-2.2-8.6-0.2s3.3,6.2,3.3,6.2"/>
	<path class="st3" d="M108,28.5"/>
	<path class="st3" d="M108.7,28.3"/>
	<path class="st3" d="M107.5,28.7c0,0,2-4.5,4.8-4.9s3.8,6,3.8,6"/>
</g>
</svg>
